<svg xmlns="http://www.w3.org/2000/svg" viewBox="0 0 640 160" width="640" height="160">
  <defs>
    <style>
      .word { font-family: Georgia, 'Times New Roman', serif; fill: #3a0f0f; }
    </style>
  </defs>

  <!-- Mark: brain + upward leaf/growth motif -->
  <g transform="translate(20,20)">
    <circle cx="60" cy="60" r="56" fill="#f2f2f2" stroke="#5c1a1a" stroke-width="4"/>
    <path d="M60 100
             C40 100 28 86 28 70
             C28 58 36 50 36 40
             C36 28 46 20 58 22
             C58 12 70 8 78 16
             C90 16 98 28 92 40
             C100 46 100 60 90 66
             C94 78 84 92 70 90
             C68 96 64 100 60 100 Z"
          fill="none" stroke="#5c1a1a" stroke-width="4" stroke-linejoin="round"/>
    <path d="M60 100 L60 70 M60 70 C60 58 70 54 76 46 M60 70 C60 60 50 56 44 50"
          fill="none" stroke="#5c1a1a" stroke-width="4" stroke-linecap="round" stroke-linejoin="round"/>
    <circle cx="60" cy="46" r="4" fill="#5c1a1a"/>
  </g>

  <!-- Wordmark -->
  <text x="160" y="78" class="word" font-size="42" font-weight="bold">The Mental Fitness</text>
  <text x="160" y="124" class="word" font-size="42" font-weight="bold">Lounge</text>
</svg>
